<?xml version="1.0" standalone="no"?>
<!DOCTYPE svg PUBLIC "-//W3C//DTD SVG 20010904//EN"
 "http://www.w3.org/TR/2001/REC-SVG-20010904/DTD/svg10.dtd">
<svg version="1.0" xmlns="http://www.w3.org/2000/svg"
 width="1536.000000pt" height="1536.000000pt" viewBox="0 0 1536.000000 1536.000000"
 preserveAspectRatio="xMidYMid meet">
<metadata>
Created by potrace 1.10, written by Peter Selinger 2001-2011
</metadata>
<g transform="translate(0.000000,1536.000000) scale(0.100000,-0.100000)"
fill="#000000" stroke="none">
<path d="M6645 14966 c-232 -41 -442 -194 -610 -446 -58 -88 -155 -265 -168
-307 -3 -10 -15 -43 -27 -73 -85 -218 -168 -591 -185 -825 -3 -44 -10 -125
-15 -180 -12 -131 -12 -532 1 -665 5 -58 14 -167 19 -243 5 -75 11 -141 14
-146 3 -5 10 -53 15 -108 5 -54 15 -129 21 -168 6 -38 18 -113 26 -165 25
-163 60 -347 90 -485 47 -208 62 -274 90 -371 8 -28 14 -65 14 -83 0 -28 -3
-32 -22 -29 -17 2 -45 41 -114 155 -241 397 -562 847 -833 1163 -494 579 -983
975 -1463 1186 -390 172 -785 197 -1043 67 -106 -54 -233 -168 -299 -268 -120
-183 -156 -460 -96 -738 23 -109 81 -292 109 -345 5 -9 30 -61 55 -114 106
-229 331 -555 545 -793 58 -64 339 -345 411 -411 306 -278 690 -570 1116 -847
130 -84 115 -75 276 -172 69 -42 129 -83 132 -90 13 -34 -31 -37 -139 -7 -22
6 -71 18 -110 27 -38 9 -88 21 -109 27 -21 5 -60 13 -85 18 -25 4 -89 17 -141
28 -91 20 -243 45 -455 78 -55 8 -141 21 -191 29 -49 8 -113 15 -141 15 -28 0
-75 5 -104 10 -104 21 -582 37 -834 29 -686 -23 -1231 -173 -1588 -438 -199
-148 -306 -287 -380 -496 -30 -86 -30 -284 0 -370 53 -149 123 -263 224 -364
253 -253 642 -425 1164 -515 277 -48 323 -51 780 -51 452 0 494 3 870 51 341
44 710 111 985 179 213 52 232 55 247 43 6 -5 9 -16 7 -23 -5 -11 -131 -92
-282 -180 -22 -13 -173 -112 -272 -178 -326 -217 -697 -503 -945 -726 -132
-120 -455 -452 -534 -551 -46 -58 -87 -107 -91 -110 -10 -7 -178 -248 -228
-327 -73 -116 -199 -382 -241 -510 -75 -229 -99 -460 -65 -642 16 -86 65 -222
90 -252 8 -8 14 -20 14 -25 0 -26 150 -179 225 -229 237 -162 608 -173 1004
-30 143 52 375 171 528 272 637 419 1313 1182 1895 2141 75 124 106 161 122
145 10 -11 7 -64 -8 -117 -29 -101 -61 -236 -91 -376 -9 -41 -20 -91 -25 -110
-22 -87 -99 -592 -124 -810 -56 -485 -55 -1026 0 -1385 40 -257 90 -470 144
-615 18 -47 38 -101 45 -120 51 -135 167 -331 269 -452 182 -219 465 -352 674
-317 128 21 240 67 347 143 82 59 219 204 284 301 54 81 177 323 206 405 187
533 244 1241 159 1990 -30 268 -94 699 -123 825 -5 22 -17 76 -26 120 -9 44
-23 103 -31 131 -8 28 -14 59 -14 69 0 10 -7 42 -15 72 -55 196 -61 231 -40
239 24 9 37 -7 126 -154 76 -125 273 -428 348 -533 17 -24 38 -53 45 -64 273
-391 688 -866 1001 -1145 602 -537 1180 -798 1659 -749 251 26 453 146 587
349 138 209 160 529 60 865 -30 101 -39 125 -81 225 -74 174 -247 465 -369
621 -95 121 -166 208 -205 249 -23 25 -85 92 -138 150 -99 110 -335 330 -498
466 -350 293 -697 539 -1139 809 -168 103 -198 128 -171 145 16 10 51 5 120
-15 204 -60 700 -153 1110 -209 342 -46 414 -50 865 -51 457 0 496 3 785 51
513 86 912 262 1161 513 171 173 249 347 249 556 0 116 -13 173 -63 287 -122
275 -454 524 -887 664 -136 44 -398 104 -525 120 -22 3 -89 12 -150 20 -255
34 -887 31 -1215 -5 -396 -44 -984 -145 -1230 -210 -184 -50 -206 -53 -220
-36 -15 18 -2 37 36 58 19 9 215 129 328 200 213 133 628 428 816 581 486 394
878 810 1122 1186 71 111 88 140 147 256 131 260 187 437 212 669 20 176 -9
373 -74 499 -51 101 -148 215 -242 286 -227 169 -577 191 -982 61 -49 -16 -99
-34 -109 -39 -10 -6 -46 -23 -79 -37 -115 -51 -240 -118 -325 -175 -31 -20
-62 -39 -70 -43 -8 -4 -63 -42 -122 -84 -524 -382 -1016 -924 -1523 -1678
-119 -177 -255 -392 -302 -478 -15 -27 -43 -48 -54 -41 -14 8 -11 71 5 128 21
74 43 160 61 246 9 41 21 91 26 110 54 216 154 882 169 1130 34 532 34 562 16
818 -18 266 -31 362 -77 600 -37 187 -100 403 -137 469 -7 12 -12 28 -12 35 0
24 -116 245 -171 325 -30 43 -94 120 -144 172 -122 127 -221 193 -360 240 -52
17 -189 43 -212 40 -4 -1 -39 -7 -78 -13z"/>
</g>
</svg>
